<svg version="1.1" id="Layer_1" xmlns="http://www.w3.org/2000/svg" xmlns:xlink="http://www.w3.org/1999/xlink" x="0px" y="0px"
	 width="100%" viewBox="0 0 232 232" enable-background="new 0 0 232 232" xml:space="preserve">
<path fill="#000000" opacity="1.000000" stroke="none" 
	d="
M233.000000,123.000000 
	C233.000000,159.593613 233.000000,196.187225 233.000000,233.000000 
	C196.646072,233.000000 160.291687,233.000000 123.180603,232.699951 
	C124.410690,229.965698 127.739845,227.720749 128.115067,225.059326 
	C128.995743,218.812912 129.063385,212.295578 128.314346,206.024765 
	C127.707428,200.943878 121.939400,197.070343 117.082703,197.002335 
	C112.300278,196.935379 105.582108,201.327682 105.485558,206.235519 
	C105.308357,215.242310 101.293259,225.527084 111.464668,232.292236 
	C111.466080,232.293167 111.161598,232.754013 111.000000,233.000000 
	C74.406380,233.000000 37.812759,233.000000 1.000000,233.000000 
	C1.000000,196.646072 1.000000,160.291687 1.300035,123.180603 
	C4.034284,124.410690 6.279242,127.739845 8.940670,128.115067 
	C15.187090,128.995743 21.704412,129.063370 27.975231,128.314316 
	C33.056133,127.707405 36.929672,121.939392 36.997658,117.082703 
	C37.064613,112.300232 32.672363,105.582138 27.764473,105.485558 
	C18.757687,105.308327 8.472918,101.293289 1.707767,111.464668 
	C1.706835,111.466072 1.245995,111.161583 1.000001,111.000000 
	C1.000000,74.406387 1.000000,37.812771 1.000000,1.000000 
	C37.353935,1.000000 73.708305,1.000000 110.819397,1.300037 
	C109.589317,4.034286 106.260162,6.279241 105.884933,8.940663 
	C105.004257,15.187084 104.936638,21.704407 105.685669,27.975227 
	C106.292564,33.056103 112.060608,36.929661 116.917282,36.997662 
	C121.699753,37.064629 128.417877,32.672375 128.514450,27.764477 
	C128.691696,18.757692 132.706711,8.472916 122.535324,1.707766 
	C122.533920,1.706829 122.838409,1.245993 123.000000,1.000000 
	C159.593613,1.000000 196.187225,1.000000 233.000000,1.000000 
	C233.000000,37.353935 233.000000,73.708305 232.699951,110.819397 
	C229.965698,109.589310 227.720749,106.260139 225.059326,105.884911 
	C218.812912,105.004242 212.295578,104.936638 206.024765,105.685661 
	C200.943909,106.292557 197.070328,112.060623 197.002319,116.917297 
	C196.935349,121.699715 201.327682,128.417892 206.235519,128.514435 
	C215.242294,128.691635 225.527069,132.706711 232.292221,122.535332 
	C232.293152,122.533920 232.753998,122.838409 233.000000,123.000000 
M64.033478,92.621521 
	C58.753521,104.257202 57.562435,116.403397 60.045048,128.834274 
	C63.279797,145.031219 71.915573,157.767120 85.998573,166.428879 
	C99.107674,174.491669 113.411934,176.936340 128.573044,173.998764 
	C146.771317,170.472717 160.594986,160.334076 168.754654,144.070969 
	C177.261185,127.116539 177.768509,109.346939 169.341064,91.678185 
	C160.014725,72.124863 144.176865,61.746731 123.297699,59.163395 
	C109.969254,57.514290 97.136436,60.353989 85.616066,67.816360 
	C76.268829,73.871078 68.858559,81.588745 64.033478,92.621521 
M31.997049,40.524857 
	C31.941536,42.173012 31.575178,43.881779 31.882759,45.459129 
	C33.458195,53.538383 39.706467,58.080463 45.875359,62.119221 
	C51.135490,65.563019 57.982155,63.662441 61.392010,59.107128 
	C65.213776,54.001534 64.634216,47.300373 59.915657,42.441120 
	C57.603596,40.060120 55.341351,37.617416 52.883984,35.393311 
	C45.128262,28.373777 35.578869,30.385679 31.997049,40.524857 
M179.021683,37.466881 
	C177.263321,39.232185 175.465759,40.960407 173.754379,42.770115 
	C169.514908,47.253143 168.938644,53.706894 172.278915,58.724049 
	C175.049957,62.886185 181.636078,65.538269 186.341248,62.778046 
	C191.417618,59.800060 196.214508,55.666203 199.825562,51.020161 
	C206.121582,42.919640 202.547424,34.476837 192.533936,31.854332 
	C186.923828,30.385063 183.116028,33.340416 179.021683,37.466881 
M45.643654,171.870468 
	C41.279659,176.232544 36.340885,180.172974 32.733730,185.090240 
	C29.853764,189.016220 30.783953,194.165039 33.733517,198.069458 
	C36.586994,201.846695 40.666538,203.264786 45.599045,202.129807 
	C53.820538,200.238037 58.089252,193.715118 62.569656,187.652695 
	C63.884933,185.873001 64.115791,182.546661 63.545658,180.251602 
	C61.413784,171.669800 55.649307,168.883224 45.643654,171.870468 
M202.002960,193.475128 
	C202.058472,191.826981 202.424805,190.118225 202.117233,188.540878 
	C200.541794,180.461624 194.293549,175.919540 188.124664,171.880783 
	C182.864532,168.436996 176.017807,170.337570 172.607986,174.892868 
	C168.786224,179.998489 169.365799,186.699631 174.084366,191.558884 
	C176.396423,193.939880 178.658676,196.382599 181.116043,198.606705 
	C188.871704,205.626221 198.421188,203.614288 202.002960,193.475128 
z"/>
<path fill="#FFFFFF" opacity="1.000000" stroke="none" 
	d="
M122.539368,1.000000 
	C122.838409,1.245993 122.533920,1.706829 122.535324,1.707766 
	C132.706711,8.472916 128.691696,18.757692 128.514450,27.764477 
	C128.417877,32.672375 121.699753,37.064629 116.917282,36.997662 
	C112.060608,36.929661 106.292564,33.056103 105.685669,27.975227 
	C104.936638,21.704407 105.004257,15.187084 105.884933,8.940663 
	C106.260162,6.279241 109.589317,4.034286 111.288055,1.300037 
	C114.692909,1.000000 118.385818,1.000000 122.539368,1.000000 
z"/>
<path fill="#FFFFFF" opacity="1.000000" stroke="none" 
	d="
M1.000001,111.460632 
	C1.245995,111.161583 1.706835,111.466072 1.707767,111.464668 
	C8.472918,101.293289 18.757687,105.308327 27.764473,105.485558 
	C32.672363,105.582138 37.064613,112.300232 36.997658,117.082703 
	C36.929672,121.939392 33.056133,127.707405 27.975231,128.314316 
	C21.704412,129.063370 15.187090,128.995743 8.940670,128.115067 
	C6.279242,127.739845 4.034284,124.410690 1.300035,122.711945 
	C1.000000,119.307091 1.000000,115.614182 1.000001,111.460632 
z"/>
<path fill="#FFFFFF" opacity="1.000000" stroke="none" 
	d="
M233.000000,122.539368 
	C232.753998,122.838409 232.293152,122.533920 232.292221,122.535332 
	C225.527069,132.706711 215.242294,128.691635 206.235519,128.514435 
	C201.327682,128.417892 196.935349,121.699715 197.002319,116.917297 
	C197.070328,112.060623 200.943909,106.292557 206.024765,105.685661 
	C212.295578,104.936638 218.812912,105.004242 225.059326,105.884911 
	C227.720749,106.260139 229.965698,109.589310 232.699951,111.288055 
	C233.000000,114.692909 233.000000,118.385818 233.000000,122.539368 
z"/>
<path fill="#FFFFFF" opacity="1.000000" stroke="none" 
	d="
M111.460640,233.000000 
	C111.161598,232.754013 111.466080,232.293167 111.464668,232.292236 
	C101.293259,225.527084 105.308357,215.242310 105.485558,206.235519 
	C105.582108,201.327682 112.300278,196.935379 117.082703,197.002335 
	C121.939400,197.070343 127.707428,200.943878 128.314346,206.024765 
	C129.063385,212.295578 128.995743,218.812912 128.115067,225.059326 
	C127.739845,227.720749 124.410690,229.965698 122.711945,232.699951 
	C119.307091,233.000000 115.614182,233.000000 111.460640,233.000000 
z"/>
<path fill="#FFFFFF" opacity="1.000000" stroke="none" 
	d="
M64.272194,92.307785 
	C68.858559,81.588745 76.268829,73.871078 85.616066,67.816360 
	C97.136436,60.353989 109.969254,57.514290 123.297699,59.163395 
	C144.176865,61.746731 160.014725,72.124863 169.341064,91.678185 
	C177.768509,109.346939 177.261185,127.116539 168.754654,144.070969 
	C160.594986,160.334076 146.771317,170.472717 128.573044,173.998764 
	C113.411934,176.936340 99.107674,174.491669 85.998573,166.428879 
	C71.915573,157.767120 63.279797,145.031219 60.045048,128.834274 
	C57.562435,116.403397 58.753521,104.257202 64.272194,92.307785 
M149.002869,105.674461 
	C147.031326,99.518684 143.225555,94.750465 138.247498,90.682869 
	C127.849327,82.186470 116.214294,80.639473 104.147476,85.518135 
	C91.919853,90.461815 84.499924,100.199608 83.133919,113.298141 
	C80.656372,137.055359 102.268585,155.873810 125.628914,149.962952 
	C143.822128,145.359512 156.181854,124.691452 149.002869,105.674461 
z"/>
<path fill="#FFFFFF" opacity="1.000000" stroke="none" 
	d="
M31.999134,40.119682 
	C35.578869,30.385679 45.128262,28.373777 52.883984,35.393311 
	C55.341351,37.617416 57.603596,40.060120 59.915657,42.441120 
	C64.634216,47.300373 65.213776,54.001534 61.392010,59.107128 
	C57.982155,63.662441 51.135490,65.563019 45.875359,62.119221 
	C39.706467,58.080463 33.458195,53.538383 31.882759,45.459129 
	C31.575178,43.881779 31.941536,42.173012 31.999134,40.119682 
z"/>
<path fill="#FFFFFF" opacity="1.000000" stroke="none" 
	d="
M179.283630,37.218754 
	C183.116028,33.340416 186.923828,30.385063 192.533936,31.854332 
	C202.547424,34.476837 206.121582,42.919640 199.825562,51.020161 
	C196.214508,55.666203 191.417618,59.800060 186.341248,62.778046 
	C181.636078,65.538269 175.049957,62.886185 172.278915,58.724049 
	C168.938644,53.706894 169.514908,47.253143 173.754379,42.770115 
	C175.465759,40.960407 177.263321,39.232185 179.283630,37.218754 
z"/>
<path fill="#FFFFFF" opacity="1.000000" stroke="none" 
	d="
M45.909901,171.581177 
	C55.649307,168.883224 61.413784,171.669800 63.545658,180.251602 
	C64.115791,182.546661 63.884933,185.873001 62.569656,187.652695 
	C58.089252,193.715118 53.820538,200.238037 45.599045,202.129807 
	C40.666538,203.264786 36.586994,201.846695 33.733517,198.069458 
	C30.783953,194.165039 29.853764,189.016220 32.733730,185.090240 
	C36.340885,180.172974 41.279659,176.232544 45.909901,171.581177 
z"/>
<path fill="#FFFFFF" opacity="1.000000" stroke="none" 
	d="
M202.000854,193.880310 
	C198.421188,203.614288 188.871704,205.626221 181.116043,198.606705 
	C178.658676,196.382599 176.396423,193.939880 174.084366,191.558884 
	C169.365799,186.699631 168.786224,179.998489 172.607986,174.892868 
	C176.017807,170.337570 182.864532,168.436996 188.124664,171.880783 
	C194.293549,175.919540 200.541794,180.461624 202.117233,188.540878 
	C202.424805,190.118225 202.058472,191.826981 202.000854,193.880310 
z"/>
<path fill="#000000" opacity="1.000000" stroke="none" 
	d="
M149.029114,106.090126 
	C156.181854,124.691452 143.822128,145.359512 125.628914,149.962952 
	C102.268585,155.873810 80.656372,137.055359 83.133919,113.298141 
	C84.499924,100.199608 91.919853,90.461815 104.147476,85.518135 
	C116.214294,80.639473 127.849327,82.186470 138.247498,90.682869 
	C143.225555,94.750465 147.031326,99.518684 149.029114,106.090126 
z"/>
</svg>